# xmcd
#
# Track frame offsets:
#	150
#	17572
#	41517
#	65157
#	80700
#	97527
#	117540
#	132532
#	149705
#	168157
#	193770
#
# Disc length: 3037 seconds
# Revision: 0
# Processed by: cddbd v1.5.2PL0 Copyright (c) Steve Scherf et al.
# Submitted via: dBpowerAMP V12.0
#
DISCID=9d0bdb0b
DTITLE=Iris Dement - The Way I Should
DYEAR=1996
DGENRE=Folk
TTITLE0=When My Mornin' Comes Around
TTITLE1=There's a Wall in Washington
TTITLE2=Wasteland of the Free
TTITLE3=I'll Take My Sorrow Straight
TTITLE4=This Kind of Happy
TTITLE5=The Way I Should
TTITLE6=Letter to Mom
TTITLE7=Keep Me God
TTITLE8=Quality Time
TTITLE9=Walkin' Home
TTITLE10=Trouble
EXTD=
EXTT0=
EXTT1=
EXTT2=
EXTT3=
EXTT4=
EXTT5=
EXTT6=
EXTT7=
EXTT8=
EXTT9=
EXTT10=
PLAYORDER=
